<?xml version="1.0" encoding="utf-8"?>
<svg viewBox="225.281 92.375 146.25 133.734" xmlns="http://www.w3.org/2000/svg" xmlns:bx="https://boxy-svg.com">
  <defs>
    <filter id="gaussian-blur-filter-0" color-interpolation-filters="sRGB" x="-500%" y="-500%" width="1000%" height="1000%" bx:preset="gaussian-blur 1 5">
      <feGaussianBlur stdDeviation="5 5" edgeMode="none"/>
    </filter>
  </defs>
  <path d="M 265.34700390625 128.5180050048828 L 264.06300390625 128.5180050048828 Q 254.54000390625 128.5180050048828 249.24350390625 133.27950500488282 Q 243.94700390625 138.0410050048828 243.94700390625 150.1320050048828 Q 243.94700390625 154.09100500488282 244.69600390625 155.64250500488282 Q 245.44500390625 157.1940050048828 245.44500390625 157.4080050048828 Q 239.66700390625 157.4080050048828 236.83150390625 155.00050500488283 Q 233.99600390625 152.5930050048828 233.99600390625 147.0290050048828 Q 233.99600390625 139.4320050048828 237.74100390625 133.1725050048828 Q 241.48600390625 126.91300500488282 249.67150390625 123.06100500488282 Q 257.85700390625 119.20900500488281 270.48300390625 119.20900500488281 Q 277.54500390625003 119.20900500488281 285.67700390625 120.49300500488282 Q 292.52500390625 121.67000500488281 297.87500390625 121.67000500488281 Q 304.72300390625 121.67000500488281 310.28700390625 119.42300500488281 Q 310.07300390625 126.37800500488281 306.75600390625 129.69500500488283 Q 303.43900390625 133.0120050048828 296.91200390625 133.0120050048828 Q 293.48800390625 133.0120050048828 290.06400390625 132.4770050048828 Q 286.64000390625 131.94200500488282 280.32700390625 130.6580050048828 L 265.56100390625 199.3520050048828 L 250.15300390625 199.3520050048828 Z M 319.1642607421875 125.84300500488281 Q 311.0322607421875 128.5180050048828 306.5917607421875 134.6705050048828 Q 302.1512607421875 140.82300500488282 302.1512607421875 149.91800500488282 Q 302.1512607421875 153.98400500488282 302.90026074218747 155.4820050048828 Q 303.6492607421875 156.9800050048828 303.6492607421875 157.30100500488282 Q 292.2002607421875 157.30100500488282 292.2002607421875 147.5640050048828 Q 292.2002607421875 140.93000500488282 297.2827607421875 134.24250500488282 Q 302.3652607421875 127.55500500488282 310.3367607421875 123.32850500488281 Q 318.3082607421875 119.10200500488281 326.2262607421875 119.10200500488281 Q 330.1852607421875 119.10200500488281 334.3582607421875 120.60000500488282 L 331.8972607421875 176.9890050048828 L 355.4372607421875 120.60000500488282 L 370.8452607421875 120.60000500488282 L 359.6102607421875 199.3520050048828 L 344.2022607421875 199.3520050048828 L 351.0502607421875 151.3090050048828 L 330.9342607421875 199.3520050048828 L 316.27526074218747 199.3520050048828 L 318.4152607421875 151.0950050048828 L 300.5462607421875 199.3520050048828 L 291.9862607421875 199.3520050048828 Z" transform="matrix(1, 0, 0, 1, 0, 0)" style="fill: rgb(255, 10, 10); white-space: pre; filter: url(#gaussian-blur-filter-0);"/>
  <path d="M 257.27699658203124 128.5180050048828 L 255.99299658203125 128.5180050048828 Q 246.46999658203126 128.5180050048828 241.17349658203125 133.27950500488282 Q 235.87699658203124 138.0410050048828 235.87699658203124 150.1320050048828 Q 235.87699658203124 154.09100500488282 236.62599658203126 155.64250500488282 Q 237.37499658203126 157.1940050048828 237.37499658203126 157.4080050048828 Q 231.59699658203124 157.4080050048828 228.76149658203124 155.00050500488283 Q 225.92599658203125 152.5930050048828 225.92599658203125 147.0290050048828 Q 225.92599658203125 139.4320050048828 229.67099658203125 133.1725050048828 Q 233.41599658203126 126.91300500488282 241.60149658203125 123.06100500488282 Q 249.78699658203124 119.20900500488281 262.41299658203127 119.20900500488281 Q 269.4749965820313 119.20900500488281 277.60699658203123 120.49300500488282 Q 284.45499658203124 121.67000500488281 289.80499658203127 121.67000500488281 Q 296.6529965820313 121.67000500488281 302.21699658203124 119.42300500488281 Q 302.00299658203124 126.37800500488281 298.68599658203124 129.69500500488283 Q 295.36899658203123 133.0120050048828 288.84199658203124 133.0120050048828 Q 285.41799658203126 133.0120050048828 281.99399658203123 132.4770050048828 Q 278.56999658203125 131.94200500488282 272.25699658203126 130.6580050048828 L 257.49099658203124 199.3520050048828 L 242.08299658203126 199.3520050048828 Z M 311.09425341796873 125.84300500488281 Q 302.9622534179687 128.5180050048828 298.52175341796874 134.6705050048828 Q 294.08125341796875 140.82300500488282 294.08125341796875 149.91800500488282 Q 294.08125341796875 153.98400500488282 294.8302534179687 155.4820050048828 Q 295.57925341796874 156.9800050048828 295.57925341796874 157.30100500488282 Q 284.13025341796873 157.30100500488282 284.13025341796873 147.5640050048828 Q 284.13025341796873 140.93000500488282 289.21275341796877 134.24250500488282 Q 294.29525341796875 127.55500500488282 302.26675341796874 123.32850500488281 Q 310.23825341796874 119.10200500488281 318.15625341796874 119.10200500488281 Q 322.11525341796874 119.10200500488281 326.28825341796875 120.60000500488282 L 323.82725341796873 176.9890050048828 L 347.36725341796875 120.60000500488282 L 362.77525341796877 120.60000500488282 L 351.54025341796876 199.3520050048828 L 336.13225341796874 199.3520050048828 L 342.98025341796875 151.3090050048828 L 322.86425341796877 199.3520050048828 L 308.2052534179687 199.3520050048828 L 310.34525341796876 151.0950050048828 L 292.47625341796873 199.3520050048828 L 283.91625341796873 199.3520050048828 Z" transform="matrix(1, 0, 0, 1, 0, 0)" style="fill: rgb(10, 238, 255); paint-order: fill; stroke: rgb(0, 0, 0); stroke-width: 2px; white-space: pre;"/>
</svg>