<?xml version="1.0" encoding="utf-8"?>
<svg viewBox="200.783 63.503 197.73 197.73" xmlns="http://www.w3.org/2000/svg" xmlns:bx="https://boxy-svg.com">
  <defs>
    <filter id="spot-light-filter-0" primitiveUnits="objectBoundingBox" x="-500%" y="-500%" width="1000%" height="1000%" bx:preset="spot-light 1 0.5 0.5 1 0.5 0.5 0 20 #ffffff 30 2 0.1 0">
      <feSpecularLighting result="specular-lighting" lighting-color="#ffffff" specularConstant="2" specularExponent="30">
        <feSpotLight x="0.5" y="0.5" z="1" limitingConeAngle="20" pointsAtX="0.5" pointsAtY="0.5" pointsAtZ="0"/>
      </feSpecularLighting>
      <feDiffuseLighting result="diffuse-lighting" lighting-color="#ffffff" diffuseConstant="0.1">
        <feSpotLight x="0.5" y="0.5" z="1" limitingConeAngle="20" pointsAtX="0.5" pointsAtY="0.5" pointsAtZ="0"/>
      </feDiffuseLighting>
      <feMerge result="lighting">
        <feMergeNode in="diffuse-lighting"/>
        <feMergeNode in="specular-lighting"/>
      </feMerge>
      <feComposite in="SourceGraphic" in2="lighting" operator="arithmetic" k1="1" k2="0" k3="0" k4="0"/>
    </filter>
    <filter id="gaussian-blur-filter-0" color-interpolation-filters="sRGB" x="-500%" y="-500%" width="1000%" height="1000%" bx:preset="gaussian-blur 1 5">
      <feGaussianBlur stdDeviation="5 5" edgeMode="none"/>
    </filter>
  </defs>
  <ellipse style="stroke: rgb(0, 0, 0); paint-order: stroke; fill: rgb(66, 0, 59); stroke-width: 0px; filter: url(#spot-light-filter-0);" cx="299.648" cy="162.368" rx="98.865" ry="98.865"/>
  <g style="mix-blend-mode: lighten;">
    <path d="M 265.34700390625 128.5180050048828 L 264.06300390625 128.5180050048828 Q 254.54000390625 128.5180050048828 249.24350390625 133.27950500488282 Q 243.94700390625 138.0410050048828 243.94700390625 150.1320050048828 Q 243.94700390625 154.09100500488282 244.69600390625 155.64250500488282 Q 245.44500390625 157.1940050048828 245.44500390625 157.4080050048828 Q 239.66700390625 157.4080050048828 236.83150390625 155.00050500488283 Q 233.99600390625 152.5930050048828 233.99600390625 147.0290050048828 Q 233.99600390625 139.4320050048828 237.74100390625 133.1725050048828 Q 241.48600390625 126.91300500488282 249.67150390625 123.06100500488282 Q 257.85700390625 119.20900500488281 270.48300390625 119.20900500488281 Q 277.54500390625003 119.20900500488281 285.67700390625 120.49300500488282 Q 292.52500390625 121.67000500488281 297.87500390625 121.67000500488281 Q 304.72300390625 121.67000500488281 310.28700390625 119.42300500488281 Q 310.07300390625 126.37800500488281 306.75600390625 129.69500500488283 Q 303.43900390625 133.0120050048828 296.91200390625 133.0120050048828 Q 293.48800390625 133.0120050048828 290.06400390625 132.4770050048828 Q 286.64000390625 131.94200500488282 280.32700390625 130.6580050048828 L 265.56100390625 199.3520050048828 L 250.15300390625 199.3520050048828 Z M 319.1661223144531 125.84300500488281 Q 311.0341223144531 128.5180050048828 306.5936223144531 134.6705050048828 Q 302.1531223144531 140.82300500488282 302.1531223144531 149.91800500488282 Q 302.1531223144531 153.98400500488282 302.9021223144531 155.4820050048828 Q 303.6511223144531 156.9800050048828 303.6511223144531 157.30100500488282 Q 292.2021223144531 157.30100500488282 292.2021223144531 147.5640050048828 Q 292.2021223144531 140.93000500488282 297.28462231445315 134.24250500488282 Q 302.3671223144531 127.55500500488282 310.3386223144531 123.32850500488281 Q 318.3101223144531 119.10200500488281 326.2281223144531 119.10200500488281 Q 330.1871223144531 119.10200500488281 334.3601223144531 120.60000500488282 L 331.8991223144531 176.9890050048828 L 355.43912231445313 120.60000500488282 L 370.84712231445315 120.60000500488282 L 359.61212231445313 199.3520050048828 L 344.2041223144531 199.3520050048828 L 351.05212231445313 151.3090050048828 L 330.93612231445314 199.3520050048828 L 316.2771223144531 199.3520050048828 L 318.41712231445314 151.0950050048828 L 300.5481223144531 199.3520050048828 L 291.9881223144531 199.3520050048828 Z" transform="matrix(1, 0, 0, 1, 0, 0)" style="fill: rgb(255, 10, 10); white-space: pre; filter: url(#gaussian-blur-filter-0);"/>
    <path d="M 257.27699658203124 128.5180050048828 L 255.99299658203125 128.5180050048828 Q 246.46999658203126 128.5180050048828 241.17349658203125 133.27950500488282 Q 235.87699658203124 138.0410050048828 235.87699658203124 150.1320050048828 Q 235.87699658203124 154.09100500488282 236.62599658203126 155.64250500488282 Q 237.37499658203126 157.1940050048828 237.37499658203126 157.4080050048828 Q 231.59699658203124 157.4080050048828 228.76149658203124 155.00050500488283 Q 225.92599658203125 152.5930050048828 225.92599658203125 147.0290050048828 Q 225.92599658203125 139.4320050048828 229.67099658203125 133.1725050048828 Q 233.41599658203126 126.91300500488282 241.60149658203125 123.06100500488282 Q 249.78699658203124 119.20900500488281 262.41299658203127 119.20900500488281 Q 269.4749965820313 119.20900500488281 277.60699658203123 120.49300500488282 Q 284.45499658203124 121.67000500488281 289.80499658203127 121.67000500488281 Q 296.6529965820313 121.67000500488281 302.21699658203124 119.42300500488281 Q 302.00299658203124 126.37800500488281 298.68599658203124 129.69500500488283 Q 295.36899658203123 133.0120050048828 288.84199658203124 133.0120050048828 Q 285.41799658203126 133.0120050048828 281.99399658203123 132.4770050048828 Q 278.56999658203125 131.94200500488282 272.25699658203126 130.6580050048828 L 257.49099658203124 199.3520050048828 L 242.08299658203126 199.3520050048828 Z M 311.09611499023435 125.84300500488281 Q 302.96411499023435 128.5180050048828 298.52361499023436 134.6705050048828 Q 294.0831149902344 140.82300500488282 294.0831149902344 149.91800500488282 Q 294.0831149902344 153.98400500488282 294.83211499023434 155.4820050048828 Q 295.58111499023437 156.9800050048828 295.58111499023437 157.30100500488282 Q 284.13211499023436 157.30100500488282 284.13211499023436 147.5640050048828 Q 284.13211499023436 140.93000500488282 289.2146149902344 134.24250500488282 Q 294.2971149902344 127.55500500488282 302.26861499023437 123.32850500488281 Q 310.24011499023436 119.10200500488281 318.15811499023437 119.10200500488281 Q 322.11711499023437 119.10200500488281 326.2901149902344 120.60000500488282 L 323.82911499023436 176.9890050048828 L 347.3691149902344 120.60000500488282 L 362.7771149902344 120.60000500488282 L 351.5421149902344 199.3520050048828 L 336.13411499023437 199.3520050048828 L 342.9821149902344 151.3090050048828 L 322.8661149902344 199.3520050048828 L 308.20711499023434 199.3520050048828 L 310.3471149902344 151.0950050048828 L 292.47811499023436 199.3520050048828 L 283.91811499023436 199.3520050048828 Z" transform="matrix(1, 0, 0, 1, 0, 0)" style="fill: rgb(10, 238, 255); paint-order: fill; stroke: rgb(0, 0, 0); stroke-width: 2px; white-space: pre;"/>
  </g>
</svg>